<svg width="36" height="36" viewBox="0 0 36 36" fill="none" xmlns="http://www.w3.org/2000/svg"><path d="M18 31.5c-.45 0-.881-.081-1.294-.244a3.224 3.224 0 01-1.106-.731L5.55 20.438a8.192 8.192 0 01-1.931-3A10.159 10.159 0 013 13.912c0-2.575.837-4.788 2.513-6.638C7.188 5.425 9.274 4.5 11.774 4.5c1.2 0 2.331.237 3.394.713A9.079 9.079 0 0118 7.2a8.646 8.646 0 012.794-1.987 8.22 8.22 0 013.393-.713c2.5 0 4.594.925 6.282 2.775 1.687 1.85 2.531 4.05 2.531 6.6a9.87 9.87 0 01-.638 3.525 8.655 8.655 0 01-1.912 3L20.363 30.525a3.272 3.272 0 01-1.088.731c-.4.163-.825.244-1.275.244zm1.511-19.125c.193 0 .364.05.514.15.15.1.288.225.413.375l2.662 3.975h7.055c.198-.486.347-.979.446-1.479.1-.5.149-1.007.149-1.521 0-1.925-.624-3.594-1.873-5.006-1.249-1.413-2.81-2.119-4.682-2.119a6.16 6.16 0 00-2.539.544 6.405 6.405 0 00-2.118 1.519L18.525 9.9a1.49 1.49 0 01-.225.188.533.533 0 01-.3.075.695.695 0 01-.563-.263l-1.012-1.088a6.625 6.625 0 00-2.124-1.515 6.08 6.08 0 00-2.526-.547c-1.864 0-3.418.706-4.66 2.117-1.244 1.41-1.865 3.08-1.865 5.008 0 .518.05 1.029.15 1.532.1.504.246.993.437 1.468H13.5c.19 0 .37.045.54.135.17.09.303.208.398.352l1.725 2.626 2.25-6.825c.077-.226.216-.413.419-.563a1.11 1.11 0 01.679-.225zm.326 3.637l-2.287 6.825a1.125 1.125 0 01-.418.563 1.11 1.11 0 01-.67.225c-.2 0-.375-.05-.524-.15a1.34 1.34 0 01-.376-.375L12.9 19.125H7.425l9.787 9.788c.125.125.248.212.368.262.12.05.26.075.42.075.16 0 .3-.025.42-.075.12-.05.242-.137.367-.262l9.75-9.788H22.5c-.2 0-.375-.05-.525-.15-.15-.1-.288-.225-.413-.375l-1.725-2.588z" fill="#3C4043"/></svg>