<svg width="36" height="36" viewBox="0 0 36 36" fill="none" xmlns="http://www.w3.org/2000/svg"><path d="M18 24.375c1.55 0 3.225-.275 5.025-.825 1.8-.55 4.338-1.55 7.613-3 .05-.275.08-.55.093-.825.013-.275.019-.563.019-.863 0-.55-.212-.98-.637-1.293a1.5 1.5 0 00-1.388-.244c-.35.125-.75.262-1.2.413-.45.15-1 .362-1.65.637-1.675.675-3.1 1.156-4.275 1.444a15.092 15.092 0 01-3.6.431c-1.275 0-2.512-.144-3.713-.431-1.2-.288-2.662-.781-4.387-1.482a74.087 74.087 0 00-1.556-.618 58.374 58.374 0 00-1.069-.394 1.422 1.422 0 00-1.388.206c-.424.313-.637.757-.637 1.332 0 .274.006.556.019.843.012.288.043.569.093.844 2.7 1.275 5.094 2.231 7.182 2.869 2.087.637 3.906.956 5.456.956zm0 6.375c2.775 0 5.212-.681 7.313-2.044 2.1-1.362 3.612-3.143 4.537-5.343-2.575 1.15-4.788 1.98-6.638 2.493-1.85.513-3.587.769-5.212.769-1.6 0-3.394-.275-5.381-.825-1.988-.55-4.156-1.363-6.506-2.438.9 2.226 2.393 4.013 4.48 5.363 2.088 1.35 4.557 2.025 7.407 2.025zM18 15c-1.65 0-3.063-.588-4.238-1.762C12.587 12.063 12 10.65 12 9c0-1.65.588-3.063 1.762-4.237C14.938 3.588 16.35 3 18 3c1.65 0 3.063.587 4.238 1.763C23.413 5.938 24 7.35 24 9s-.587 3.063-1.762 4.238C21.063 14.413 19.65 15 18 15zm0-2.25c1.05 0 1.938-.363 2.663-1.088.724-.725 1.087-1.612 1.087-2.662 0-1.05-.363-1.938-1.087-2.662C19.937 5.612 19.05 5.25 18 5.25c-1.05 0-1.938.362-2.662 1.088C14.613 7.062 14.25 7.95 14.25 9c0 1.05.363 1.938 1.088 2.662.725.725 1.612 1.088 2.662 1.088zM18 33c-4.425 0-8.031-1.313-10.819-3.938C4.394 26.438 3 23.038 3 18.863c0-1.3.519-2.337 1.556-3.112 1.038-.775 2.169-.963 3.394-.563.4.126.819.27 1.256.432.438.162.957.369 1.556.619 1.6.65 2.925 1.106 3.976 1.368a13.726 13.726 0 006.45.019c1.05-.25 2.337-.7 3.862-1.35.725-.275 1.306-.5 1.744-.675.437-.175.869-.325 1.293-.45 1.226-.35 2.35-.138 3.375.637S33 17.587 33 18.863c0 1.976-.388 3.82-1.163 5.532a14.094 14.094 0 01-3.187 4.481c-1.35 1.275-2.938 2.281-4.762 3.019C22.061 32.63 20.1 33 18 33z" fill="#3C4043"/></svg>