<svg width="48" height="48" viewBox="0 0 48 48" fill="none" xmlns="http://www.w3.org/2000/svg"><path d="M24 33.6c2.633 0 4.9-.95 6.8-2.85 1.9-1.9 2.85-4.166 2.85-6.8 0-2.633-.95-4.9-2.85-6.8-1.9-1.9-4.167-2.85-6.8-2.85s-4.9.95-6.8 2.85c-1.9 1.9-2.85 4.167-2.85 6.8 0 2.634.95 4.9 2.85 6.8 1.9 1.9 4.167 2.85 6.8 2.85zm3.7-4.6l-4.95-4.55v-6.8h2.1v6.2l4.2 3.8L27.7 29zM24 43.95c-4.667-1.167-8.5-3.875-11.5-8.125S8 26.917 8 21.85V9.95l16-6 16 6v11.9c0 5.067-1.5 9.725-4.5 13.975S28.667 42.783 24 43.95zm0-3.1c3.833-1.267 6.958-3.658 9.375-7.175C35.792 30.16 37 26.217 37 21.85v-9.8l-13-4.9-13 4.9v9.8c0 4.367 1.208 8.308 3.625 11.825 2.417 3.517 5.542 5.909 9.375 7.175z" fill="#3C4043"/></svg>