<svg width="36" height="36" viewBox="0 0 36 36" fill="none" xmlns="http://www.w3.org/2000/svg"><path d="M32.25 13.5a2.17 2.17 0 01-1.594-.656A2.17 2.17 0 0130 11.25c0-.625.219-1.156.656-1.594A2.17 2.17 0 0132.25 9a2.17 2.17 0 011.594.656c.437.438.656.969.656 1.594a2.17 2.17 0 01-.656 1.594 2.17 2.17 0 01-1.594.656zM25.5 21c-1.25 0-2.313-.438-3.188-1.313S21 17.75 21 16.5c0-1.25.438-2.313 1.313-3.188C23.188 12.438 24.25 12 25.5 12c1.25 0 2.313.438 3.188 1.313C29.563 14.187 30 15.25 30 16.5c0 1.25-.438 2.313-1.313 3.188S26.75 21 25.5 21zm0 12c-1.475 0-2.719-.506-3.731-1.519-1.013-1.012-1.519-2.256-1.519-3.731s.506-2.719 1.519-3.731C22.78 23.006 24.025 22.5 25.5 22.5s2.719.506 3.731 1.519c1.013 1.012 1.519 2.256 1.519 3.731s-.506 2.719-1.519 3.731C28.22 32.494 26.975 33 25.5 33zm-15-12c-2.5 0-4.625-.875-6.375-2.625S1.5 14.5 1.5 12s.875-4.625 2.625-6.375S8 3 10.5 3s4.625.875 6.375 2.625S19.5 9.5 19.5 12s-.875 4.625-2.625 6.375S13 21 10.5 21z" fill="#3C4043"/></svg>