<svg width="48" height="48" viewBox="0 0 48 48" fill="none" xmlns="http://www.w3.org/2000/svg"><g clip-path="url(#clip0_47_416317)"><path d="M43 12c-1.66 0-3 1.34-3 3s1.34 3 3 3 3-1.34 3-3-1.34-3-3-3zm-9 16c3.32 0 6-2.68 6-6s-2.68-6-6-6-6 2.68-6 6 2.68 6 6 6zm0 2c-3.86 0-7 3.14-7 7s3.14 7 7 7 7-3.14 7-7-3.14-7-7-7zM14 4C7.38 4 2 9.38 2 16s5.38 12 12 12 12-5.38 12-12S20.62 4 14 4z" fill="#5F6368"/></g><defs><clipPath id="clip0_47_416317"><path fill="#fff" d="M0 0h48v48H0z"/></clipPath></defs></svg>