<svg width="48" height="48" viewBox="0 0 48 48" fill="none" xmlns="http://www.w3.org/2000/svg"><g clip-path="url(#clip0_47_416318)"><g clip-path="url(#clip1_47_416318)"><path d="M6.5 20.3c.04 1.64.16 3.24.38 4.88 1.04 7 4.96 14.92 15.74 20.48.86.44 1.9.44 2.76 0 10.78-5.56 14.7-13.48 15.74-20.48.22-1.64.34-3.22.38-4.88v-9.66c0-1.52-.94-2.86-2.38-3.38l-13.9-5.04c-.8-.28-1.66-.28-2.46 0L8.88 7.24a3.604 3.604 0 00-2.38 3.4v9.66z" fill="#5F6368"/><mask id="a" style="mask-type:alpha" maskUnits="userSpaceOnUse" x="6" y="2" width="36" height="44"><path d="M6.5 20.3c.04 1.64.16 3.24.38 4.88 1.04 7 4.96 14.92 15.74 20.48.86.44 1.9.44 2.76 0 10.78-5.56 14.7-13.48 15.74-20.48.22-1.64.34-3.22.38-4.88v-9.66c0-1.52-.94-2.86-2.38-3.38l-13.9-5.04c-.8-.28-1.66-.28-2.46 0L8.88 7.24a3.604 3.604 0 00-2.38 3.4v9.66z" fill="#1967D2"/></mask><g mask="url(#a)"><path d="M24 1.5H2v45h22v-45z" fill="#5F6368"/></g><path d="M24.2 32c-5.52 0-10-4.48-10-10s4.48-10 10-10c2.7 0 4.96 1 6.7 2.6l-2.64 2.54c-.76-.72-2.08-1.56-4.06-1.56-3.48 0-6.3 2.88-6.3 6.42s2.84 6.42 6.3 6.42c4.02 0 5.68-2.9 5.84-4.82H24v-3.42h9.56c.14.62.24 1.22.24 2.04 0 5.72-3.82 9.78-9.6 9.78z" fill="#EFEBE6"/><mask id="b" style="mask-type:alpha" maskUnits="userSpaceOnUse" x="14" y="12" width="20" height="20"><path d="M24.2 32c-5.52 0-10-4.48-10-10s4.48-10 10-10c2.7 0 4.96 1 6.7 2.6l-2.64 2.54c-.76-.72-2.08-1.56-4.06-1.56-3.48 0-6.3 2.88-6.3 6.42s2.84 6.42 6.3 6.42c4.02 0 5.68-2.9 5.84-4.82H24v-3.42h9.56c.14.62.24 1.22.24 2.04 0 5.72-3.82 9.78-9.6 9.78z" fill="#E8F0FE"/></mask><g mask="url(#b)"><path d="M24 12H14v20h10V12z" fill="#EFEBE6"/></g></g></g><defs><clipPath id="clip0_47_416318"><path fill="#fff" d="M0 0h48v48H0z"/></clipPath><clipPath id="clip1_47_416318"><path fill="#fff" d="M0 0h48v48H0z"/></clipPath></defs></svg>