<svg width="48" height="48" viewBox="0 0 48 48" fill="none" xmlns="http://www.w3.org/2000/svg"><path d="M10.367 10.367L4.5 12.323l5.867 2.608 1.956 5.868 2.608-5.868 5.868-2.608-5.868-1.956L12.323 4.5l-1.956 5.867zm13.039 10.711l-3.772 1.257 3.772 1.677 1.258 3.772 1.676-3.772 3.772-1.677-3.772-1.257-1.676-3.772-1.258 3.772z" fill="#5F6368"/><path fill-rule="evenodd" clip-rule="evenodd" d="M22.781 4.5H37.17c3.497 0 6.331 2.91 6.331 6.5v32.5h-3.453V11c0-1.632-1.288-2.955-2.878-2.955H22.781V4.5zm-8.968 20.373V43.5h-3.492V24.873h3.492z" fill="#5F6368"/></svg>